<svg xmlns="http://www.w3.org/2000/svg" width="24" height="24" fill="currentColor">
<path fill="currentColor" fillRule="evenodd" d="M10.938 3.175a.674.674 0 0 1 1.138-.488l6.526 6.215c.574.547.554 1.47-.043 1.991l-6.505 5.676a.674.674 0 0 1-1.116-.508V13.49s-6.985-1.258-9.225 2.854c-.209.384-1.023.518-.857-1.395.692-3.52 2.106-9.017 10.082-9.017V3.175Z" clipRule="evenodd"></path>
<path fill="#161823" fillRule="evenodd" d="m15.754 6.212 1.295 2.59a1.122 1.122 0 0 1-.268 1.349l-5.799 5.042s-.28 1.403.562 1.403c.842 0 7.578-6.174 7.578-6.174s.28-.842-.561-1.684c-.843-.842-2.807-2.526-2.807-2.526Z" clipRule="evenodd" opacity=".03"></path>
<path fill="url(#pc-share-44d9fe83_a)" fillRule="evenodd" d="M10.937 6.23v7.297s-6.683-.942-8.777 2.246C.146 18.839.331 12.309 3.363 9.057c3.033-3.252 7.574-2.827 7.574-2.827Z" clipRule="evenodd" opacity=".09"></path>
</svg>

