<svg fill="currentColor" viewBox="0 0 48 48" xmlns="http://www.w3.org/2000/svg" width="1em" height="1em"><path d="M10.21 19.4a1 1 0 0 1 1.42 0l2.33 2.34a1 1 0 0 1 0 1.41l-3.89 3.9a7.7 7.7 0 1 0 10.89 10.88l3.89-3.89a1 1 0 0 1 1.41 0l2.34 2.33a1 1 0 0 1 0 1.42l-3.9 3.89A13 13 0 0 1 6.33 23.29l3.9-3.89ZM34.04 24.85a1 1 0 0 0 0 1.41l2.34 2.34a1 1 0 0 0 1.4 0l3.9-3.9A13 13 0 1 0 23.29 6.33l-3.89 3.9a1 1 0 0 0 0 1.4l2.34 2.34a1 1 0 0 0 1.41 0l3.9-3.89a7.7 7.7 0 1 1 10.88 10.89l-3.89 3.89Z"></path><path d="M15.76 28.49a1 1 0 0 0 0 1.41l2.34 2.34a1 1 0 0 0 1.41 0L32.24 19.5a1 1 0 0 0 0-1.41l-2.34-2.34a1 1 0 0 0-1.4 0L15.75 28.5Z"></path></svg>